<?xml version="1.0" standalone="no"?>
<!DOCTYPE svg PUBLIC "-//W3C//DTD SVG 20010904//EN"
 "http://www.w3.org/TR/2001/REC-SVG-20010904/DTD/svg10.dtd">
<svg version="1.0" xmlns="http://www.w3.org/2000/svg"
 width="210.000000pt" height="66.000000pt" viewBox="0 0 210.000000 66.000000"
 preserveAspectRatio="xMidYMid meet">

<g transform="translate(0.000000,66.000000) scale(0.100000,-0.100000)"
fill="#000000" stroke="none">
<path d="M275 543 c-8 -10 -62 -114 -119 -230 -98 -198 -104 -213 -86 -223 10
-5 22 -10 27 -10 5 0 51 86 103 190 52 105 98 190 102 190 9 0 158 -293 158
-310 0 -5 -22 -10 -50 -10 -49 0 -50 -1 -50 -30 l0 -30 68 0 c70 0 112 17 112
46 0 18 -187 393 -208 417 -8 9 -21 17 -29 17 -7 0 -20 -8 -28 -17z"/>
<path d="M665 542 c-3 -3 -5 -16 -5 -29 0 -23 0 -23 135 -23 74 0 135 -3 135
-7 0 -5 -27 -39 -60 -77 -33 -38 -60 -77 -60 -85 0 -9 27 -49 60 -89 33 -41
60 -78 60 -83 0 -4 -15 -8 -32 -7 -18 1 -79 1 -135 0 -103 -2 -103 -2 -103
-27 l0 -25 179 0 c231 0 228 -4 102 150 -33 41 -61 77 -61 80 0 3 34 45 75 93
74 87 86 109 64 123 -14 8 -346 14 -354 6z"/>
<path d="M1142 513 l3 -28 102 -3 c100 -3 102 -3 127 -33 45 -53 30 -127 -31
-158 -12 -6 -46 -11 -77 -11 -91 0 -87 -8 73 -129 51 -39 98 -71 105 -71 6 0
17 9 24 20 11 18 6 24 -53 67 -35 27 -64 50 -64 53 0 3 14 14 32 25 17 11 42
36 55 55 20 29 23 45 20 91 -8 112 -62 149 -218 149 l-101 0 3 -27z"/>
<path d="M1710 513 c-98 -51 -148 -159 -120 -258 16 -56 76 -125 129 -150 45
-20 46 -20 55 12 6 18 1 25 -33 42 -71 37 -110 113 -96 187 7 37 63 104 108
129 13 7 18 19 15 38 l-3 29 -55 -29z"/>
<path d="M1860 511 c0 -24 8 -34 44 -55 70 -41 103 -129 75 -203 -14 -37 -54
-79 -90 -93 -23 -10 -29 -19 -29 -41 0 -34 8 -35 59 -9 56 28 107 93 121 151
27 113 -29 216 -143 264 l-37 15 0 -29z"/>
</g>
</svg>
